<mxfile host="app.diagrams.net" modified="2021-12-25T17:53:55.788Z" agent="5.0 (Macintosh; Intel Mac OS X 10_14_6) AppleWebKit/537.36 (KHTML, like Gecko) Chrome/95.0.4638.69 Safari/537.36" etag="lH90UxpQ8XkwHrBJVn0h" version="16.0.0" type="github">
  <diagram id="C5RBs43oDa-KdzZeNtuy" name="Page-1">
    <mxGraphModel dx="1181" dy="657" grid="0" gridSize="10" guides="1" tooltips="1" connect="1" arrows="1" fold="1" page="1" pageScale="1" pageWidth="827" pageHeight="1169" math="0" shadow="0">
      <root>
        <mxCell id="WIyWlLk6GJQsqaUBKTNV-0" />
        <mxCell id="WIyWlLk6GJQsqaUBKTNV-1" parent="WIyWlLk6GJQsqaUBKTNV-0" />
        <mxCell id="KGa9qcaHfyR3osmDypD4-2" value="" style="edgeStyle=orthogonalEdgeStyle;rounded=0;orthogonalLoop=1;jettySize=auto;html=1;" edge="1" parent="WIyWlLk6GJQsqaUBKTNV-1" source="KGa9qcaHfyR3osmDypD4-0" target="KGa9qcaHfyR3osmDypD4-1">
          <mxGeometry relative="1" as="geometry" />
        </mxCell>
        <mxCell id="KGa9qcaHfyR3osmDypD4-3" value="窗口阈值到达 或者 3dup-ack" style="edgeLabel;html=1;align=center;verticalAlign=middle;resizable=0;points=[];" vertex="1" connectable="0" parent="KGa9qcaHfyR3osmDypD4-2">
          <mxGeometry x="-0.0199" y="1" relative="1" as="geometry">
            <mxPoint as="offset" />
          </mxGeometry>
        </mxCell>
        <mxCell id="KGa9qcaHfyR3osmDypD4-0" value="慢启动" style="ellipse;whiteSpace=wrap;html=1;strokeColor=default;fillColor=none;" vertex="1" parent="WIyWlLk6GJQsqaUBKTNV-1">
          <mxGeometry x="207" y="268" width="120" height="80" as="geometry" />
        </mxCell>
        <mxCell id="KGa9qcaHfyR3osmDypD4-5" value="" style="edgeStyle=orthogonalEdgeStyle;rounded=0;orthogonalLoop=1;jettySize=auto;html=1;" edge="1" parent="WIyWlLk6GJQsqaUBKTNV-1" source="KGa9qcaHfyR3osmDypD4-1" target="KGa9qcaHfyR3osmDypD4-4">
          <mxGeometry relative="1" as="geometry" />
        </mxCell>
        <mxCell id="KGa9qcaHfyR3osmDypD4-6" value="3dup-ack" style="edgeLabel;html=1;align=center;verticalAlign=middle;resizable=0;points=[];" vertex="1" connectable="0" parent="KGa9qcaHfyR3osmDypD4-5">
          <mxGeometry x="-0.0727" y="-2" relative="1" as="geometry">
            <mxPoint x="1" as="offset" />
          </mxGeometry>
        </mxCell>
        <mxCell id="KGa9qcaHfyR3osmDypD4-10" value="" style="edgeStyle=orthogonalEdgeStyle;rounded=0;orthogonalLoop=1;jettySize=auto;html=1;entryX=0.5;entryY=0;entryDx=0;entryDy=0;" edge="1" parent="WIyWlLk6GJQsqaUBKTNV-1" source="KGa9qcaHfyR3osmDypD4-1" target="KGa9qcaHfyR3osmDypD4-0">
          <mxGeometry relative="1" as="geometry">
            <mxPoint x="579" y="188" as="targetPoint" />
            <Array as="points">
              <mxPoint x="579" y="241" />
              <mxPoint x="267" y="241" />
            </Array>
          </mxGeometry>
        </mxCell>
        <mxCell id="KGa9qcaHfyR3osmDypD4-11" value="rto超时" style="edgeLabel;html=1;align=center;verticalAlign=middle;resizable=0;points=[];" vertex="1" connectable="0" parent="KGa9qcaHfyR3osmDypD4-10">
          <mxGeometry x="0.071" y="1" relative="1" as="geometry">
            <mxPoint as="offset" />
          </mxGeometry>
        </mxCell>
        <mxCell id="KGa9qcaHfyR3osmDypD4-1" value="&lt;pre style=&quot;overflow-wrap: break-word&quot;&gt;拥塞避免&lt;/pre&gt;" style="ellipse;whiteSpace=wrap;html=1;strokeColor=default;fillColor=none;" vertex="1" parent="WIyWlLk6GJQsqaUBKTNV-1">
          <mxGeometry x="519" y="268" width="120" height="80" as="geometry" />
        </mxCell>
        <mxCell id="KGa9qcaHfyR3osmDypD4-8" value="恢复丢包" style="edgeStyle=orthogonalEdgeStyle;rounded=0;orthogonalLoop=1;jettySize=auto;html=1;entryX=1.008;entryY=0.588;entryDx=0;entryDy=0;entryPerimeter=0;exitX=1;exitY=0.5;exitDx=0;exitDy=0;" edge="1" parent="WIyWlLk6GJQsqaUBKTNV-1" source="KGa9qcaHfyR3osmDypD4-4" target="KGa9qcaHfyR3osmDypD4-1">
          <mxGeometry relative="1" as="geometry">
            <mxPoint x="627" y="471" as="targetPoint" />
          </mxGeometry>
        </mxCell>
        <mxCell id="KGa9qcaHfyR3osmDypD4-4" value="&lt;pre style=&quot;overflow-wrap: break-word&quot;&gt;快速重传/恢复&lt;/pre&gt;" style="ellipse;whiteSpace=wrap;html=1;strokeColor=default;fillColor=none;" vertex="1" parent="WIyWlLk6GJQsqaUBKTNV-1">
          <mxGeometry x="427" y="431" width="120" height="80" as="geometry" />
        </mxCell>
      </root>
    </mxGraphModel>
  </diagram>
</mxfile>
